Coordinates
version=1
nRows=11
nColumns=36
inDegrees=yes

Units are S.I. units (second, meters, Newtons, ...)
If the header above contains a line with 'inDegrees', this indicates whether rotational values are in degrees (yes) or radians (no).

endheader
time	pelvis_tilt	pelvis_list	pelvis_rotation	pelvis_tx	pelvis_ty	pelvis_tz	hip_flexion_r	hip_adduction_r	hip_rotation_r	knee_angle_r	knee_angle_r_beta	ankle_angle_r	subtalar_angle_r	mtp_angle_r	hip_flexion_l	hip_adduction_l	hip_rotation_l	knee_angle_l	knee_angle_l_beta	ankle_angle_l	subtalar_angle_l	mtp_angle_l	lumbar_extension	lumbar_bending	lumbar_rotation	arm_flex_r	arm_add_r	arm_rot_r	elbow_flex_r	pro_sup_r	arm_flex_l	arm_add_l	arm_rot_l	elbow_flex_l	pro_sup_l
      0.00000000	      1.50113520	     -1.61210302	     -0.34088007	     -0.93003594	      1.24878866	     -0.06790591	     -4.84540686	      1.43986990	     -5.84568434	      4.52482193	      0.07897304	      6.62128025	    -15.07824100	     -5.30371165	     -4.61870664	     -3.38823640	     -0.61195643	      5.34304904	      0.09325380	      8.12640707	     -8.50743094	     -5.30371165	    -12.29691327	      1.99488006	      0.19460311	      9.07752630	     -9.35745890	     22.49818637	     23.92790477	     73.49791869	      4.19620287	     -7.78291305	     20.48940235	     25.19178699	     64.28960301
      0.00416670	      0.49744949	     -1.17986052	     -0.06972471	     -0.92972496	      1.24916355	     -0.06891253	     -2.84790919	      1.41906887	     -4.95026318	      5.99330542	      0.10460291	      7.94321655	    -14.72429266	     -5.52198215	     -2.62869306	     -2.29894035	      0.42211720	      6.02749107	      0.10519956	      7.94874175	     -8.81874202	     -5.52198215	    -11.36503167	      1.49034045	      0.12004250	      8.52054410	     -8.89974843	     18.80753560	     24.13970377	     73.59655176	      4.57836395	     -7.62996076	     19.22527242	     24.41010929	     64.54973955
      0.00833330	      0.51633215	     -0.38374736	     -0.36648588	     -0.92986789	      1.24903628	     -0.06718141	     -3.06791033	      0.65878442	     -5.09827682	      5.33164760	      0.09305481	      7.86620841	    -14.41317617	     -5.70023597	     -2.97481881	     -1.50798736	      0.08641537	      5.42188073	      0.09462967	      7.65186560	     -8.76044361	     -5.70023597	    -11.40498607	      0.08770347	      0.27996749	      8.46366815	     -8.24680347	     18.00918198	     24.15717919	     72.84627617	      5.12467672	     -8.50760777	     19.64778011	     24.52211886	     64.63310114
      0.01250000	      1.88557009	     -0.05747299	     -0.51074510	     -0.93017045	      1.25250410	     -0.06671352	     -4.99362270	      0.27277978	     -5.10342331	      4.44815352	      0.07763492	      7.70333679	    -14.06407734	     -6.06208302	     -5.25516228	     -1.06233784	      0.22907831	      4.09735854	      0.07151240	      6.91705496	     -9.40670189	     -6.06208302	    -13.31986721	     -0.65196718	      0.89396642	      8.08300736	     -7.97381635	     15.95180482	     25.12077315	     71.97312650	      6.26073804	     -9.46264792	     22.95026022	     24.60311177	     66.24479852
      0.01666670	      2.77346300	      0.05161868	     -0.66937175	     -0.93089850	      1.25456468	     -0.06617394	     -6.28659727	      0.20368387	     -4.87144561	      3.76697133	      0.06574605	      7.49561316	    -14.08455239	     -6.25447766	     -6.75149488	     -0.85076221	      0.39549878	      3.15273827	      0.05502566	      6.50065531	     -9.88197173	     -6.25447766	    -14.63268686	     -0.95942969	      1.07977044	      8.15691528	     -7.94568023	     15.98250528	     25.64653261	     71.15287637	      6.70021011	     -9.85369512	     23.73284968	     24.99850489	     66.27339680
      0.02083330	      3.25752767	      0.08963913	     -0.76966637	     -0.93164168	      1.25322669	     -0.06545642	     -7.03170851	      0.20988763	     -4.39478948	      3.30884276	      0.05775020	      7.15981734	    -14.53599487	     -6.68360573	     -7.46494195	     -0.76184273	      0.79010018	      2.78331081	      0.04857794	      6.27023656	    -10.54268340	     -6.68360573	    -15.36934680	     -1.15048702	      1.39788003	      8.16432125	     -8.07836939	     16.68711779	     26.07413258	     69.92727484	      7.32400901	    -10.24236863	     25.90958331	     24.99854048	     66.73962626
      0.02500000	      3.56888652	      0.08981886	     -0.87257200	     -0.93216035	      1.25312882	     -0.06473974	     -7.51905420	      0.24141481	     -3.99106115	      2.97524845	      0.05192788	      6.90692882	    -15.02450151	     -7.03227908	     -7.90014212	     -0.74599515	      0.99960677	      2.57041862	      0.04486227	      6.10211023	    -10.90307814	     -7.03227908	    -15.94948072	     -1.21689917	      1.65426109	      8.25676326	     -8.31894844	     17.67490273	     26.48017395	     68.59669415	      7.73284817	    -10.43144301	     27.18852684	     25.26120178	     66.43757319
      0.02916670	      3.80389630	      0.09651246	     -0.90003461	     -0.93157159	      1.25566567	     -0.06506459	     -7.92666219	      0.26464976	     -3.68986500	      2.68074582	      0.04678784	      6.68757913	    -15.26217466	     -7.10293833	     -8.24237405	     -0.72672893	      1.22663896	      2.40422732	      0.04196168	      5.88137021	    -11.21856318	     -7.10293833	    -16.38430850	     -1.23338666	      1.76210973	      8.28597612	     -8.37773436	     17.73395281	     26.70255018	     67.80529459	      7.92728495	    -10.39858158	     27.19035439	     25.41640599	     65.97427378
      0.03333330	      4.03633098	      0.07111602	     -0.92921812	     -0.93077296	      1.25506004	     -0.06334119	     -8.40496937	      0.36555069	     -3.42686814	      2.28920616	      0.03995418	      6.37513996	    -15.59283745	     -7.18057874	     -8.61829926	     -0.79192502	      1.36562465	      2.21853559	      0.03872075	      5.64538961	    -11.40922046	     -7.18057874	    -16.67111840	     -1.27743061	      1.86593003	      8.29341182	     -8.55255555	     18.94827076	     26.90677813	     67.89205303	      8.17096001	    -10.61627774	     28.60395152	     25.52511454	     66.33351963
      0.03750000	      4.19714477	      0.07053321	     -0.92253519	     -0.92885212	      1.25495125	     -0.06372703	     -8.81689921	      0.41311429	     -3.39097081	      1.96734607	      0.03433667	      6.23925110	    -15.65791434	     -7.26437188	     -8.91832634	     -0.81356820	      1.48027047	      2.10045327	      0.03665983	      5.51922762	    -11.47796887	     -7.26437188	    -16.73650151	     -1.28651956	      1.92936250	      8.24557144	     -8.63323042	     19.47808185	     26.85878461	     67.36013212	      8.20291675	    -10.61905156	     29.23666495	     25.41941965	     66.04451127
      0.04166670	      4.22477705	      0.07150466	     -0.93937873	     -0.92923129	      1.25655969	     -0.06317750	     -9.06199967	      0.46373070	     -3.08488311	      1.64701392	      0.02874582	      5.83191016	    -16.16440998	     -7.33308830	     -9.09005731	     -0.85384658	      1.67314776	      1.90192633	      0.03319488	      5.19105675	    -11.85649347	     -7.33308830	    -16.67809588	     -1.35226664	      2.01394879	      8.10130714	     -8.74203784	     20.31271087	     27.03552922	     66.94449394	      8.25804983	    -10.82641154	     30.23122371	     25.46352117	     65.90564030
